<?xml version="1.0" standalone="no"?>
<!DOCTYPE svg PUBLIC "-//W3C//DTD SVG 20010904//EN" "http://www.w3.org/TR/2001/REC-SVG-20010904/DTD/svg10.dtd">
<svg version="1.0" xmlns="http://www.w3.org/2000/svg" width="10.000000pt" height="10.000000pt" viewBox="0 0 10.000000 10.000000" preserveAspectRatio="xMidYMid meet">

    <g transform="translate(0.000000,981.000000) scale(0.100000,-0.100000)" fill="#000000" stroke="none">
        <path d="M4460 9799 c-822 -61 -1609 -352 -2311 -855 -564 -404 -1063 -946
-1426 -1549 -661 -1099 -879 -2358 -607 -3505 35 -149 103 -378 200 -673 397
-1214 1385 -2244 2679 -2791 298 -126 701 -250 1023 -316 823 -166 1702 -121
2457 128 272 90 638 257 865 394 162 99 582 387 710 488 635 502 1117 1172
1421 1972 290 767 393 1652 288 2483 -156 1230 -727 2302 -1614 3032 -103 85
-386 296 -485 363 -177 119 -354 221 -565 325 -613 303 -1239 467 -1920 505
-206 11 -561 11 -715 -1z m3238 -2862 l492 -492 -2030 -2030 -2030 -2030
-1237 1237 -1238 1238 490 490 c269 269 494 490 500 490 5 0 340 -331 744
-735 404 -404 737 -735 740 -735 3 0 695 689 1536 1530 841 842 1532 1530
1535 1530 3 0 227 -222 498 -493z" />
    </g>
</svg>